<svg viewBox="0 0 600 190" role="img" aria-labelledby="fig-catch22" xmlns="http://www.w3.org/2000/svg"><title id="fig-catch22">Catch22 turns four series into four rows of 22 features</title><polyline class="f-line f-a" points="28,35.9 41.3,32.3 54.7,34.7 68,36 81.3,38.7 94.7,33.8 108,38.4 121.3,28.4 134.7,26.8 148,39.6"/><polyline class="f-line f-a" points="28,62.6 41.3,68.4 54.7,67.5 68,59.6 81.3,78.4 94.7,78.1 108,79.6 121.3,61.7 134.7,62.9 148,60.9"/><polyline class="f-line f-a" points="28,90.5 41.3,94.4 54.7,101.8 68,94.8 81.3,109.4 94.7,97.9 108,108.8 121.3,91.2 134.7,100.5 148,102.9"/><polyline class="f-line f-a" points="28,138.2 41.3,127 54.7,134 68,131.5 81.3,143.6 94.7,130.4 108,130.5 121.3,130.4 134.7,123.2 148,129"/><path class="f-line f-ink-strong" d="M160 86H186m-6 -5l6 5l-6 5"/><rect class="f-box" x="194" y="64" width="84" height="44" rx="10"/><text class="f-code" x="236" y="90.5" text-anchor="middle">Catch22</text><path class="f-line f-ink-strong" d="M286 86H304m-6 -5l6 5l-6 5"/><rect class="f-fill-a" x="312" y="63" width="10" height="10" rx="2.5" style="fill-opacity:0.15"/><rect class="f-fill-a" x="324" y="63" width="10" height="10" rx="2.5" style="fill-opacity:0.15"/><rect class="f-fill-a" x="336" y="63" width="10" height="10" rx="2.5" style="fill-opacity:0.38"/><rect class="f-fill-a" x="348" y="63" width="10" height="10" rx="2.5" style="fill-opacity:0.57"/><rect class="f-fill-a" x="360" y="63" width="10" height="10" rx="2.5" style="fill-opacity:1.00"/><rect class="f-fill-a" x="372" y="63" width="10" height="10" rx="2.5" style="fill-opacity:0.15"/><rect class="f-fill-a" x="384" y="63" width="10" height="10" rx="2.5" style="fill-opacity:1.00"/><rect class="f-fill-a" x="396" y="63" width="10" height="10" rx="2.5" style="fill-opacity:0.15"/><rect class="f-fill-a" x="408" y="63" width="10" height="10" rx="2.5" style="fill-opacity:0.15"/><rect class="f-fill-a" x="420" y="63" width="10" height="10" rx="2.5" style="fill-opacity:0.15"/><rect class="f-fill-a" x="432" y="63" width="10" height="10" rx="2.5" style="fill-opacity:1.00"/><rect class="f-fill-a" x="444" y="63" width="10" height="10" rx="2.5" style="fill-opacity:0.57"/><rect class="f-fill-a" x="456" y="63" width="10" height="10" rx="2.5" style="fill-opacity:1.00"/><rect class="f-fill-a" x="468" y="63" width="10" height="10" rx="2.5" style="fill-opacity:1.00"/><rect class="f-fill-a" x="480" y="63" width="10" height="10" rx="2.5" style="fill-opacity:1.00"/><rect class="f-fill-a" x="492" y="63" width="10" height="10" rx="2.5" style="fill-opacity:0.22"/><rect class="f-fill-a" x="504" y="63" width="10" height="10" rx="2.5" style="fill-opacity:1.00"/><rect class="f-fill-a" x="516" y="63" width="10" height="10" rx="2.5" style="fill-opacity:1.00"/><rect class="f-fill-a" x="528" y="63" width="10" height="10" rx="2.5" style="fill-opacity:0.15"/><rect class="f-fill-a" x="540" y="63" width="10" height="10" rx="2.5" style="fill-opacity:0.15"/><rect class="f-fill-a" x="552" y="63" width="10" height="10" rx="2.5" style="fill-opacity:0.72"/><rect class="f-fill-a" x="564" y="63" width="10" height="10" rx="2.5" style="fill-opacity:0.15"/><rect class="f-fill-a" x="312" y="75" width="10" height="10" rx="2.5" style="fill-opacity:1.00"/><rect class="f-fill-a" x="324" y="75" width="10" height="10" rx="2.5" style="fill-opacity:0.21"/><rect class="f-fill-a" x="336" y="75" width="10" height="10" rx="2.5" style="fill-opacity:1.00"/><rect class="f-fill-a" x="348" y="75" width="10" height="10" rx="2.5" style="fill-opacity:1.00"/><rect class="f-fill-a" x="360" y="75" width="10" height="10" rx="2.5" style="fill-opacity:0.15"/><rect class="f-fill-a" x="372" y="75" width="10" height="10" rx="2.5" style="fill-opacity:0.27"/><rect class="f-fill-a" x="384" y="75" width="10" height="10" rx="2.5" style="fill-opacity:0.15"/><rect class="f-fill-a" x="396" y="75" width="10" height="10" rx="2.5" style="fill-opacity:0.57"/><rect class="f-fill-a" x="408" y="75" width="10" height="10" rx="2.5" style="fill-opacity:1.00"/><rect class="f-fill-a" x="420" y="75" width="10" height="10" rx="2.5" style="fill-opacity:0.15"/><rect class="f-fill-a" x="432" y="75" width="10" height="10" rx="2.5" style="fill-opacity:0.31"/><rect class="f-fill-a" x="444" y="75" width="10" height="10" rx="2.5" style="fill-opacity:0.15"/><rect class="f-fill-a" x="456" y="75" width="10" height="10" rx="2.5" style="fill-opacity:0.15"/><rect class="f-fill-a" x="468" y="75" width="10" height="10" rx="2.5" style="fill-opacity:0.91"/><rect class="f-fill-a" x="480" y="75" width="10" height="10" rx="2.5" style="fill-opacity:0.79"/><rect class="f-fill-a" x="492" y="75" width="10" height="10" rx="2.5" style="fill-opacity:0.15"/><rect class="f-fill-a" x="504" y="75" width="10" height="10" rx="2.5" style="fill-opacity:0.15"/><rect class="f-fill-a" x="516" y="75" width="10" height="10" rx="2.5" style="fill-opacity:0.28"/><rect class="f-fill-a" x="528" y="75" width="10" height="10" rx="2.5" style="fill-opacity:0.15"/><rect class="f-fill-a" x="540" y="75" width="10" height="10" rx="2.5" style="fill-opacity:0.15"/><rect class="f-fill-a" x="552" y="75" width="10" height="10" rx="2.5" style="fill-opacity:0.15"/><rect class="f-fill-a" x="564" y="75" width="10" height="10" rx="2.5" style="fill-opacity:1.00"/><rect class="f-fill-a" x="312" y="87" width="10" height="10" rx="2.5" style="fill-opacity:0.71"/><rect class="f-fill-a" x="324" y="87" width="10" height="10" rx="2.5" style="fill-opacity:0.80"/><rect class="f-fill-a" x="336" y="87" width="10" height="10" rx="2.5" style="fill-opacity:0.15"/><rect class="f-fill-a" x="348" y="87" width="10" height="10" rx="2.5" style="fill-opacity:0.15"/><rect class="f-fill-a" x="360" y="87" width="10" height="10" rx="2.5" style="fill-opacity:0.78"/><rect class="f-fill-a" x="372" y="87" width="10" height="10" rx="2.5" style="fill-opacity:0.96"/><rect class="f-fill-a" x="384" y="87" width="10" height="10" rx="2.5" style="fill-opacity:1.00"/><rect class="f-fill-a" x="396" y="87" width="10" height="10" rx="2.5" style="fill-opacity:0.15"/><rect class="f-fill-a" x="408" y="87" width="10" height="10" rx="2.5" style="fill-opacity:0.71"/><rect class="f-fill-a" x="420" y="87" width="10" height="10" rx="2.5" style="fill-opacity:0.15"/><rect class="f-fill-a" x="432" y="87" width="10" height="10" rx="2.5" style="fill-opacity:0.15"/><rect class="f-fill-a" x="444" y="87" width="10" height="10" rx="2.5" style="fill-opacity:1.00"/><rect class="f-fill-a" x="456" y="87" width="10" height="10" rx="2.5" style="fill-opacity:1.00"/><rect class="f-fill-a" x="468" y="87" width="10" height="10" rx="2.5" style="fill-opacity:0.15"/><rect class="f-fill-a" x="480" y="87" width="10" height="10" rx="2.5" style="fill-opacity:0.79"/><rect class="f-fill-a" x="492" y="87" width="10" height="10" rx="2.5" style="fill-opacity:1.00"/><rect class="f-fill-a" x="504" y="87" width="10" height="10" rx="2.5" style="fill-opacity:0.15"/><rect class="f-fill-a" x="516" y="87" width="10" height="10" rx="2.5" style="fill-opacity:0.15"/><rect class="f-fill-a" x="528" y="87" width="10" height="10" rx="2.5" style="fill-opacity:0.15"/><rect class="f-fill-a" x="540" y="87" width="10" height="10" rx="2.5" style="fill-opacity:0.15"/><rect class="f-fill-a" x="552" y="87" width="10" height="10" rx="2.5" style="fill-opacity:1.00"/><rect class="f-fill-a" x="564" y="87" width="10" height="10" rx="2.5" style="fill-opacity:0.54"/><rect class="f-fill-a" x="312" y="99" width="10" height="10" rx="2.5" style="fill-opacity:0.57"/><rect class="f-fill-a" x="324" y="99" width="10" height="10" rx="2.5" style="fill-opacity:1.00"/><rect class="f-fill-a" x="336" y="99" width="10" height="10" rx="2.5" style="fill-opacity:0.42"/><rect class="f-fill-a" x="348" y="99" width="10" height="10" rx="2.5" style="fill-opacity:0.15"/><rect class="f-fill-a" x="360" y="99" width="10" height="10" rx="2.5" style="fill-opacity:0.20"/><rect class="f-fill-a" x="372" y="99" width="10" height="10" rx="2.5" style="fill-opacity:1.00"/><rect class="f-fill-a" x="384" y="99" width="10" height="10" rx="2.5" style="fill-opacity:0.15"/><rect class="f-fill-a" x="396" y="99" width="10" height="10" rx="2.5" style="fill-opacity:1.00"/><rect class="f-fill-a" x="408" y="99" width="10" height="10" rx="2.5" style="fill-opacity:0.29"/><rect class="f-fill-a" x="420" y="99" width="10" height="10" rx="2.5" style="fill-opacity:0.15"/><rect class="f-fill-a" x="432" y="99" width="10" height="10" rx="2.5" style="fill-opacity:0.84"/><rect class="f-fill-a" x="444" y="99" width="10" height="10" rx="2.5" style="fill-opacity:1.00"/><rect class="f-fill-a" x="456" y="99" width="10" height="10" rx="2.5" style="fill-opacity:1.00"/><rect class="f-fill-a" x="468" y="99" width="10" height="10" rx="2.5" style="fill-opacity:0.81"/><rect class="f-fill-a" x="480" y="99" width="10" height="10" rx="2.5" style="fill-opacity:0.15"/><rect class="f-fill-a" x="492" y="99" width="10" height="10" rx="2.5" style="fill-opacity:0.17"/><rect class="f-fill-a" x="504" y="99" width="10" height="10" rx="2.5" style="fill-opacity:0.15"/><rect class="f-fill-a" x="516" y="99" width="10" height="10" rx="2.5" style="fill-opacity:0.64"/><rect class="f-fill-a" x="528" y="99" width="10" height="10" rx="2.5" style="fill-opacity:0.15"/><rect class="f-fill-a" x="540" y="99" width="10" height="10" rx="2.5" style="fill-opacity:0.15"/><rect class="f-fill-a" x="552" y="99" width="10" height="10" rx="2.5" style="fill-opacity:0.43"/><rect class="f-fill-a" x="564" y="99" width="10" height="10" rx="2.5" style="fill-opacity:0.27"/><text class="f-text" x="88" y="172" text-anchor="middle">4 series</text><text class="f-text" x="443" y="172" text-anchor="middle">4 rows of 22 features</text></svg>
