<svg viewBox="0 0 600 228" role="img" aria-labelledby="fig-classification" xmlns="http://www.w3.org/2000/svg"><title id="fig-classification">Days of electricity demand, the two classes have different shapes</title><path class="f-line f-ink f-thin" d="M56 185h528"/><path class="f-line f-ink f-thin" d="M56 185v5"/><text class="f-text" x="56" y="206" text-anchor="middle">0h</text><path class="f-line f-ink f-thin" d="M193.7 185v5"/><text class="f-text" x="193.7" y="206" text-anchor="middle">6h</text><path class="f-line f-ink f-thin" d="M331.5 185v5"/><text class="f-text" x="331.5" y="206" text-anchor="middle">12h</text><path class="f-line f-ink f-thin" d="M469.2 185v5"/><text class="f-text" x="469.2" y="206" text-anchor="middle">18h</text><path class="f-line f-ink f-thin" d="M584 185v5"/><text class="f-text" x="594" y="206" text-anchor="end">23h</text><text class="f-text" x="42" y="102" text-anchor="middle" transform="rotate(-90 42 102)">demand</text><polyline class="f-line f-a f-thin f-faint" points="56,137.2 79,154.8 101.9,161.9 124.9,170.1 147.8,165.4 170.8,161.9 193.7,151.3 216.7,108.9 239.7,75.9 262.6,70 285.6,63 308.5,74.7 331.5,87.7 354.4,110.1 377.4,134.8 400.3,120.7 423.3,118.3 446.3,87.7 469.2,59.4 492.2,55.9 515.1,71.2 538.1,88.9 561,104.2 584,120.7"/><polyline class="f-line f-a f-thin f-faint" points="56,147.7 79,163.9 101.9,169.6 124.9,170.6 147.8,171.5 170.8,162 193.7,148.7 216.7,123.9 239.7,83.8 262.6,65.7 285.6,68.6 308.5,71.4 331.5,81 354.4,93.4 377.4,92.4 400.3,89.6 423.3,87.6 446.3,99.1 469.2,101 492.2,69.5 515.1,71.4 538.1,84.8 561,112.4 584,124.8"/><polyline class="f-line f-a f-thin f-faint" points="56,147 79,162.6 101.9,168 124.9,171.1 147.8,171.1 170.8,164.9 193.7,147.7 216.7,108.7 239.7,86.9 262.6,72 285.6,80.6 308.5,79.8 331.5,86.1 354.4,96.2 377.4,98.6 400.3,92.3 423.3,87.7 446.3,61.9 469.2,64.2 492.2,70.5 515.1,90 538.1,94.7 561,117.3 584,134.5"/><polyline class="f-line f-a f-thin f-faint" points="56,96.9 79,121 101.9,139.1 124.9,143.1 147.8,153.1 170.8,151.1 193.7,153.1 216.7,133 239.7,151.1 262.6,121 285.6,96.9 308.5,92.9 331.5,90.8 354.4,106.9 377.4,121 400.3,125 423.3,133 446.3,131 469.2,129 492.2,96.9 515.1,24.5 538.1,32.6 561,44.6 584,66.7"/><polyline class="f-line f-a f-thin f-faint" points="56,151.7 79,162 101.9,167.5 124.9,168.9 147.8,170.3 170.8,164.1 193.7,153.1 216.7,119.3 239.7,86.2 262.6,75.2 285.6,73.2 308.5,76.6 331.5,80.7 354.4,94.5 377.4,89.7 400.3,86.9 423.3,79.4 446.3,81.4 469.2,65.6 492.2,73.8 515.1,88.3 538.1,99.3 561,115.2 584,131.7"/><polyline class="f-line f-a f-thin f-faint" points="56,153.6 79,168.5 101.9,166.3 124.9,169.2 147.8,169.2 170.8,164.8 193.7,151.3 216.7,107.3 239.7,97.6 262.6,70.7 285.6,69.3 308.5,71.5 331.5,86.4 354.4,91.6 377.4,87.9 400.3,87.2 423.3,84.9 446.3,83.4 469.2,70.7 492.2,74.5 515.1,88.7 538.1,96.9 561,113.3 584,129.7"/><polyline class="f-line f-a f-thin f-faint" points="56,148.2 79,162.2 101.9,168.8 124.9,170.7 147.8,172.6 170.8,164.1 193.7,151 216.7,102.2 239.7,75.9 262.6,66.5 285.6,69.3 308.5,77.8 331.5,83.4 354.4,90.9 377.4,90 400.3,86.2 423.3,89 446.3,100.3 469.2,102.2 492.2,65.6 515.1,81.5 538.1,90.9 561,109.7 584,135.9"/><polyline class="f-line f-a f-thin f-faint" points="56,147 79,158.5 101.9,168.5 124.9,170.8 147.8,171.6 170.8,166.2 193.7,148.6 216.7,115.6 239.7,85 262.6,71.9 285.6,72.7 308.5,77.3 331.5,91.1 354.4,94.2 377.4,95.7 400.3,94.9 423.3,90.3 446.3,62 469.2,65 492.2,76.5 515.1,88.8 538.1,91.1 561,117.9 584,133.2"/><polyline class="f-line f-a f-thin f-faint" points="56,146.6 79,164.2 101.9,167.7 124.9,171.2 147.8,172.9 170.8,164.2 193.7,146.6 216.7,119.5 239.7,86.2 262.6,67.8 285.6,67.8 308.5,73 331.5,81.8 354.4,96.7 377.4,96.7 400.3,89.7 423.3,90.6 446.3,95.8 469.2,93.2 492.2,58.1 515.1,77.4 538.1,89.7 561,108.1 584,129.1"/><polyline class="f-line f-a f-thin f-faint" points="56,132.5 79,141.2 101.9,155 124.9,165 147.8,177.5 170.8,162.5 193.7,150 216.7,126.2 239.7,127.5 262.6,106.2 285.6,91.2 308.5,86.2 331.5,90 354.4,102.5 377.4,115 400.3,128.7 423.3,110 446.3,67.5 469.2,57.5 492.2,50 515.1,53.7 538.1,61.2 561,85 584,112.5"/><polyline class="f-line f-a f-thin f-faint" points="56,120.2 79,137.9 101.9,152.7 124.9,161.5 147.8,165.9 170.8,164.5 193.7,151.2 216.7,139.4 239.7,140.9 262.6,109.9 285.6,98.1 308.5,86.3 331.5,84.9 354.4,114.4 377.4,118.8 400.3,121.7 423.3,120.2 446.3,77.5 469.2,53.9 492.2,46.5 515.1,49.5 538.1,59.8 561,79 584,99.6"/><polyline class="f-line f-a f-thin f-faint" points="56,150.6 79,159.7 101.9,166 124.9,168.8 147.8,168.8 170.8,166 193.7,149.9 216.7,117 239.7,93.3 262.6,74.4 285.6,75.8 308.5,76.5 331.5,84.9 354.4,87 377.4,92.6 400.3,91.2 423.3,86.3 446.3,62.5 469.2,70.2 492.2,70.9 515.1,85.6 538.1,98.9 561,120.5 584,137.3"/><polyline class="f-line f-b f-thin f-faint" points="56,61.3 79,89.3 101.9,103.3 124.9,113.8 147.8,117.3 170.8,120.8 193.7,113.8 216.7,162.8 239.7,152.3 262.6,138.3 285.6,110.3 308.5,113.8 331.5,110.3 354.4,127.8 377.4,131.3 400.3,138.3 423.3,138.3 446.3,138.3 469.2,152.3 492.2,127.8 515.1,92.8 538.1,22.8 561,26.3 584,50.8"/><polyline class="f-line f-b f-thin f-faint" points="56,141 79,153.9 101.9,163.5 124.9,167.8 147.8,166.8 170.8,163.5 193.7,172.1 216.7,128.1 239.7,86.2 262.6,71.1 285.6,60.4 308.5,65.7 331.5,73.3 354.4,86.2 377.4,82.9 400.3,77.6 423.3,77.6 446.3,85.1 469.2,87.2 492.2,94.8 515.1,110.9 538.1,111.9 561,106.6 584,120.5"/><polyline class="f-line f-b f-thin f-faint" points="56,107.3 79,132.1 101.9,151.2 124.9,162.7 147.8,162.7 170.8,158.9 193.7,176 216.7,137.9 239.7,97.8 262.6,46.3 285.6,42.5 308.5,44.4 331.5,67.3 354.4,80.6 377.4,103.5 400.3,111.2 423.3,113.1 446.3,113.1 469.2,111.2 492.2,107.3 515.1,122.6 538.1,118.8 561,82.5 584,103.5"/><polyline class="f-line f-b f-thin f-faint" points="56,138.9 79,155 101.9,159.8 124.9,164.5 147.8,164.5 170.8,158.8 193.7,168.3 216.7,143.6 239.7,95.2 262.6,65.7 285.6,62.9 308.5,63.8 331.5,73.3 354.4,79 377.4,77.1 400.3,74.3 423.3,72.4 446.3,83.8 469.2,99 492.2,92.3 515.1,116.1 538.1,118 561,108.5 584,119.9"/><polyline class="f-line f-b f-thin f-faint" points="56,129.6 79,156.9 101.9,156.9 124.9,170.6 147.8,170.6 170.8,153.5 193.7,139.9 216.7,156.9 239.7,116 262.6,75.1 285.6,61.4 308.5,54.6 331.5,64.9 354.4,78.5 377.4,92.1 400.3,81.9 423.3,92.1 446.3,92.1 469.2,105.8 492.2,122.8 515.1,136.5 538.1,71.7 561,78.5 584,95.5"/><polyline class="f-line f-b f-thin f-faint" points="56,143.3 79,157.9 101.9,166.2 124.9,173.5 147.8,173.5 170.8,167.3 193.7,157.9 216.7,122.5 239.7,91.2 262.6,68.3 285.6,66.2 308.5,66.2 331.5,77.7 354.4,89.1 377.4,88.1 400.3,87 423.3,77.7 446.3,92.2 469.2,100.6 492.2,97.5 515.1,77.7 538.1,87 561,104.7 584,121.4"/><polyline class="f-line f-b f-thin f-faint" points="56,79.2 79,124.4 101.9,126.6 124.9,141.6 147.8,145.9 170.8,143.8 193.7,178.2 216.7,167.4 239.7,152.4 262.6,126.6 285.6,96.4 308.5,85.7 331.5,79.2 354.4,105 377.4,113.7 400.3,122.3 423.3,130.9 446.3,120.1 469.2,111.5 492.2,96.4 515.1,74.9 538.1,29.7 561,47 584,55.6"/><polyline class="f-line f-b f-thin f-faint" points="56,143.1 79,156.4 101.9,163.6 124.9,167.7 147.8,167.7 170.8,165.6 193.7,168.7 216.7,134.9 239.7,91.9 262.6,66.2 285.6,65.2 308.5,62.1 331.5,72.4 354.4,84.7 377.4,84.7 400.3,80.6 423.3,80.6 446.3,85.7 469.2,96 492.2,98 515.1,107.2 538.1,106.2 561,93.9 584,111.3"/><polyline class="f-line f-b f-thin f-faint" points="56,141 79,154.4 101.9,166.9 124.9,168.8 147.8,170.8 170.8,162.1 193.7,152.5 216.7,134.3 239.7,87.2 262.6,61.3 285.6,58.4 308.5,58.4 331.5,67 354.4,82.4 377.4,86.2 400.3,84.3 423.3,85.3 446.3,94.9 469.2,99.7 492.2,107.4 515.1,110.2 538.1,91 561,103.5 584,126.6"/><polyline class="f-line f-b f-thin f-faint" points="56,134.8 79,151.5 101.9,161.9 124.9,166.1 147.8,172.4 170.8,164 193.7,141.1 216.7,143.2 239.7,105.7 262.6,70.2 285.6,59.8 308.5,59.8 331.5,61.9 354.4,78.6 377.4,80.6 400.3,76.5 423.3,70.2 446.3,89 469.2,97.3 492.2,111.9 515.1,136.9 538.1,103.6 561,99.4 584,118.2"/><polyline class="f-line f-b f-thin f-faint" points="56,147 79,159 101.9,169 124.9,172 147.8,167 170.8,167 193.7,151 216.7,125 239.7,93 262.6,59 285.6,61 308.5,63 331.5,77 354.4,86 377.4,84 400.3,84 423.3,87 446.3,97 469.2,100 492.2,106 515.1,99 538.1,79 561,102 584,121"/><polyline class="f-line f-b f-thin f-faint" points="56,97.9 79,122.8 101.9,137.3 124.9,145.5 147.8,151.7 170.8,151.7 193.7,143.5 216.7,131 239.7,147.6 262.6,122.8 285.6,100 308.5,87.6 331.5,91.7 354.4,106.2 377.4,124.8 400.3,131 423.3,137.3 446.3,137.3 469.2,124.8 492.2,93.8 515.1,21.4 538.1,33.8 561,46.2 584,66.9"/><polyline class="f-line f-a f-bold" points="56,141.7 79,155.2 101.9,164.3 124.9,168 147.8,169.5 170.8,163.1 193.7,148.4 216.7,119.8 239.7,95.1 262.6,77.3 285.6,73.4 308.5,76.2 331.5,83.5 354.4,97.5 377.4,102.3 400.3,100.4 423.3,98.2 446.3,89.9 469.2,79.6 492.2,62.7 515.1,73.3 538.1,85.1 561,106.1 584,123.8"/><polyline class="f-line f-b f-bold" points="56,121.8 79,141.9 101.9,153.9 124.9,161.1 147.8,162.6 170.8,158.1 193.7,156.8 216.7,142.3 239.7,108.3 262.6,76.7 285.6,65.9 308.5,66 331.5,74.2 354.4,89.5 377.4,97.6 400.3,96 423.3,95.7 446.3,101.6 469.2,106.8 492.2,103.9 515.1,101.9 538.1,82.6 561,85.9 584,103.5"/></svg>
