<svg viewBox="0 0 600 214" role="img" aria-labelledby="fig-padder" xmlns="http://www.w3.org/2000/svg"><title id="fig-padder">Two series of 12 and 9 time points, the second one padded with three zeros</title><path class="f-line f-ink f-thin" d="M56 84h528"/><polyline class="f-line f-a" points="78,78.6 122,55.9 166,55.5 210,55.8 254,61.8 298,68.2 342,70.6 386,77.1 430,71.3 474,65.7 518,56.7 562,65.7"/><circle class="f-fill-a" cx="78" cy="78.6" r="3.5"/><circle class="f-fill-a" cx="122" cy="55.9" r="3.5"/><circle class="f-fill-a" cx="166" cy="55.5" r="3.5"/><circle class="f-fill-a" cx="210" cy="55.8" r="3.5"/><circle class="f-fill-a" cx="254" cy="61.8" r="3.5"/><circle class="f-fill-a" cx="298" cy="68.2" r="3.5"/><circle class="f-fill-a" cx="342" cy="70.6" r="3.5"/><circle class="f-fill-a" cx="386" cy="77.1" r="3.5"/><circle class="f-fill-a" cx="430" cy="71.3" r="3.5"/><circle class="f-fill-a" cx="474" cy="65.7" r="3.5"/><circle class="f-fill-a" cx="518" cy="56.7" r="3.5"/><circle class="f-fill-a" cx="562" cy="65.7" r="3.5"/><path class="f-line f-ink f-thin" d="M56 180h528"/><polyline class="f-line f-a" points="78,147.7 122,170.8 166,169.9 210,173.5 254,129.7 298,132.7 342,127.7 386,121.8 430,131.5"/><circle class="f-fill-a" cx="78" cy="147.7" r="3.5"/><circle class="f-fill-a" cx="122" cy="170.8" r="3.5"/><circle class="f-fill-a" cx="166" cy="169.9" r="3.5"/><circle class="f-fill-a" cx="210" cy="173.5" r="3.5"/><circle class="f-fill-a" cx="254" cy="129.7" r="3.5"/><circle class="f-fill-a" cx="298" cy="132.7" r="3.5"/><circle class="f-fill-a" cx="342" cy="127.7" r="3.5"/><circle class="f-fill-a" cx="386" cy="121.8" r="3.5"/><circle class="f-fill-a" cx="430" cy="131.5" r="3.5"/><rect class="f-soft-b" x="454.2" y="118" width="127.6" height="62" rx="4"/><polyline class="f-line f-b f-dash" points="430,131.5 474,174.6 518,174.6 562,174.6"/><circle class="f-fill-b" cx="474" cy="174.6" r="3.5"/><circle class="f-fill-b" cx="518" cy="174.6" r="3.5"/><circle class="f-fill-b" cx="562" cy="174.6" r="3.5"/><path class="f-line f-ink f-thin" d="M78 180v5"/><text class="f-text" x="78" y="201" text-anchor="middle">0</text><path class="f-line f-ink f-thin" d="M122 180v5"/><text class="f-text" x="122" y="201" text-anchor="middle">1</text><path class="f-line f-ink f-thin" d="M166 180v5"/><text class="f-text" x="166" y="201" text-anchor="middle">2</text><path class="f-line f-ink f-thin" d="M210 180v5"/><text class="f-text" x="210" y="201" text-anchor="middle">3</text><path class="f-line f-ink f-thin" d="M254 180v5"/><text class="f-text" x="254" y="201" text-anchor="middle">4</text><path class="f-line f-ink f-thin" d="M298 180v5"/><text class="f-text" x="298" y="201" text-anchor="middle">5</text><path class="f-line f-ink f-thin" d="M342 180v5"/><text class="f-text" x="342" y="201" text-anchor="middle">6</text><path class="f-line f-ink f-thin" d="M386 180v5"/><text class="f-text" x="386" y="201" text-anchor="middle">7</text><path class="f-line f-ink f-thin" d="M430 180v5"/><text class="f-text" x="430" y="201" text-anchor="middle">8</text><path class="f-line f-ink f-thin" d="M474 180v5"/><text class="f-text" x="474" y="201" text-anchor="middle">9</text><path class="f-line f-ink f-thin" d="M518 180v5"/><text class="f-text" x="518" y="201" text-anchor="middle">10</text><path class="f-line f-ink f-thin" d="M562 180v5"/><text class="f-text" x="562" y="201" text-anchor="middle">11</text></svg>
